<svg viewBox="0 0 1734.12 1500" xmlns:xlink="http://www.w3.org/1999/xlink" xmlns="http://www.w3.org/2000/svg"><defs><style>.cls-1{fill:none;stroke:#d3dcf4;stroke-width:20px;}.cls-1,.cls-6{stroke-miterlimit:10;}.cls-2{fill:#d3dcf4;}.cls-3{fill:#c9cfe5;}.cls-11,.cls-3{opacity:0.3;isolation:isolate;}.cls-4{fill:url(#未命名的渐变_17);}.cls-5{fill:#fafbfd;}.cls-6{stroke:#5d83ff;stroke-width:18px;fill:url(#未命名的渐变_94);}.cls-7{fill:#fe9f39;}.cls-8{fill:#5d83ff;}.cls-9{fill:#3a3a77;}.cls-10{opacity:0.64;fill:url(#未命名的渐变_49);}.cls-11{fill:#a0b3f8;}.cls-12{fill:url(#未命名的渐变_23);}.cls-13{fill:#fff;}</style><linearGradient gradientUnits="userSpaceOnUse" gradientTransform="matrix(30, 0, 0, -141.35, 10051.5, 536875.07)" y2="3793.68" x2="-291.22" y1="3793.68" x1="-293.8" id="未命名的渐变_17"><stop stop-color="#eaeff5" offset="0"></stop><stop stop-color="#dee1f0" offset="0.99"></stop></linearGradient><linearGradient gradientUnits="userSpaceOnUse" y2="753.65" x2="1308.48" y1="753.65" x1="417.12" id="未命名的渐变_94"><stop stop-color="#ebf4ff" offset="0"></stop><stop stop-color="#ebe1ff" offset="1"></stop></linearGradient><linearGradient gradientUnits="userSpaceOnUse" y2="789" x2="1349.12" y1="789" x1="989.12" id="未命名的渐变_49"><stop stop-color="#ebf4ff" offset="0"></stop><stop stop-color="#ebebff" offset="1"></stop></linearGradient><linearGradient gradientUnits="userSpaceOnUse" gradientTransform="matrix(62.22, 0, 0, -75.14, 20386.44, 286724.88)" y2="3800.45" x2="-314.01" y1="3800.45" x1="-316.57" id="未命名的渐变_23"><stop stop-color="#548fff" offset="0"></stop><stop stop-color="#949fff" offset="1"></stop></linearGradient></defs><title>icon</title><g id="_3无结果"><path d="M1592.62,1276h-1278a22.57,22.57,0,0,1-22.5-22.5h0a22.57,22.57,0,0,1,22.5-22.5h1278a22.56,22.56,0,0,1,22.5,22.5h0A22.56,22.56,0,0,1,1592.62,1276Z" class="cls-1"></path><path d="M1228.12,1317H1303c23.52,0,47.64-1.68,71,.85,7.38.79,16.08,1.45,22.83,5.09,6.34,3.41,5.42,8.84,2.92,14.53-3.58,8.14-7.4,15.67-6.78,24.85.67,9.8,8.73,13.71,17.5,15.56,26,5.49,53.36,1.92,79.63,1.12,11.56-.35,11.61-18.36,0-18-23.81.73-48.11,3.61-71.83.08-.79-.12-10.24-3-10.16-3.08-.44.39,3.84,3.5,2.86,4.32a14,14,0,0,0-.07-2.28,17,17,0,0,1,1-5.67c2.52-7.76,7.34-14.38,7.92-22.77,1.48-21.35-20.45-28.37-37.42-30.68-23.38-3.17-47.05-1.92-70.59-1.92h-83.71c-11.58,0-11.6,18,0,18Z" class="cls-2"></path><path d="M480.12,1325h260c11.58,0,11.6-18,0-18h-260c-11.58,0-11.6,18,0,18Z" class="cls-2"></path><g id="建筑-灰"><path d="M1271.82,829.13,1239,810.22c-2.41-1.43-2.16-3.91.69-5.56l31.15-18c2.85-1.64,7.22-1.82,9.63-.39l32.79,18.9c2.48,1.43,2.16,3.92-.69,5.57l-31.14,18C1278.61,830.33,1274.3,830.55,1271.82,829.13Z" class="cls-3" id="路径"></path><path d="M1315,792.14a1.5,1.5,0,0,0,0-.3v-343h-77.59V792.18a2.87,2.87,0,0,0,1.66,2.41l32.79,18.9c2.48,1.42,6.79,1.21,9.63-.4l31.14-18a4.2,4.2,0,0,0,2.35-2.9Z" class="cls-4" id="路径-2"></path><path d="M1271.82,470.35,1239,451.44c-2.41-1.43-2.16-3.92.69-5.56l31.15-18c2.85-1.65,7.22-1.83,9.63-.41q2.4,1.42,32.79,18.92c2.48,1.42,2.16,3.91-.69,5.55l-31.14,18C1278.61,471.6,1274.3,471.76,1271.82,470.35Z" class="cls-5" id="路径-3"></path></g><g id="图层_9"><path d="M605.12,1185s48-85,19-177S512.63,675,476.88,615.49A999.14,999.14,0,0,1,417.12,498L1135.5,322.3s116.08,310.33,135.35,390.51S1327.2,946,1297.16,993.5,605.12,1185,605.12,1185Z" class="cls-6"></path></g><g id="图层_11"><polyline points="1240.62 272.5 1259.62 176.5 1308.62 203.5 1240.62 276.5" class="cls-2"></polyline><polygon points="1253.62 286.5 1412.62 243.5 1422.62 303.5 1253.62 286.5" class="cls-2"></polygon></g><g id="图层_12"><path d="M304.26,712c-21.15,8-42.27,17-61,29.81-18.44,12.56-36.14,30-38.48,53.32-2,20,7.95,39.32,26.79,46.94,18.64,7.53,40.63,4.66,59.66.24,20.66-4.8,41.64-12.41,59.86-23.41,4.95-3,.43-10.78-4.54-7.78-14.33,8.66-30.32,14.84-46.35,19.52-17.74,5.18-37.63,9.32-56.09,5.73-17.46-3.4-29.3-15.48-30.47-33.62-1.38-21.47,14-38.55,30.24-50.41,19-13.86,40.91-23.36,62.8-31.66,5.36-2,3-10.73-2.39-8.68Z" class="cls-2"></path><path d="M344.73,817.77c13.37,19.64,32.44,30.12,55.53,34.24,5.66,1,8.09-7.67,2.39-8.68-20.69-3.69-38.08-12.37-50.14-30.1-3.24-4.76-11.05-.26-7.78,4.54Z" class="cls-2"></path><path d="M388.12,791.5c-2.16,19.27,2.56,37.15,8.33,55.36,1.74,5.5,10.43,3.15,8.68-2.39-5.56-17.55-10.09-34.39-8-53,.65-5.75-8.36-5.7-9,0Z" class="cls-2"></path><path d="M306.82,720.84c15.46-5.11,31.37-9.45,47.57-11.42,13.78-1.68,28.45-2.07,41.71,2.66,10.64,3.79,20.89,11.54,25.23,22.24,3.68,9.1,2.58,19.43-1.81,28.08-6.07,11.93-16.9,20.17-29,25.38-5.31,2.28-.73,10,4.54,7.77,22.55-9.7,42.35-32.7,36.46-58.69-6.67-29.4-40.19-38.68-66.46-37.37-20.68,1-41.05,6.2-60.64,12.67-5.47,1.81-3.12,10.5,2.4,8.68Z" class="cls-2"></path><path d="M272.12,781.33c-5.58-.1-10.19,1.61-13.66,6.11a14.45,14.45,0,0,0-1.93,13.81c1.81,4.73,5.3,8.46,10.3,9.79a17.85,17.85,0,0,0,13.73-2.22c8.39-5.52,8-19.81-.51-25-3.44-2.11-8.16-2.28-11.94-1.09a11.51,11.51,0,0,0-8,14A9.07,9.07,0,0,0,271.18,803a9.2,9.2,0,0,0,6.29-11.07,6.79,6.79,0,0,1-4.09,8c1.45-.55-1.67.11-.7.07,1.26-.06-.07,0-.57-.14-1.46-.39-3.66-2.2-3.63-3.77a5.78,5.78,0,0,1,.23.91q.19,1-.12-.93c.27,0-.39,2.38.09.67.13-.78.1-.78-.08,0l.41-1.08a3.75,3.75,0,0,1,2.36-2.16c.67-.23.58-.22-.26,0-1.74.36.93,0-.17,0s1.63.49.08,0a4.07,4.07,0,0,1,2.56,1.89c-.9-1.43.17,1.67-.11-.15l.13,1.15c0-.82,0-.84-.09,0a10.13,10.13,0,0,1-1.19,2.37c.93-1.1-.68.15-1.18.44l-.77.13,1.75,0c4.71.09,9.22-4.2,9-9a9.17,9.17,0,0,0-9-9Z" class="cls-2"></path><path d="M320.79,757.33c-5.25,0-10.61,1.21-13.6,6-2.54,4.05-2.81,9.7-1.24,14.19a15.21,15.21,0,0,0,27.62,2.85c4.69-8.45.19-19.94-9.45-21.82-9-1.75-19.3,3.68-17.28,14.08a8.75,8.75,0,0,0,6.29,6.29l.6.11c4.61.88,9.93-1.28,11.07-6.28,1-4.44-1.34-10.14-6.29-11.08l-.6-.11,6.29,6.29c.62,3.2-.24,6.34-3.06,8.07,1.19-.73-2.21.5-.82.3a7,7,0,0,1,.79-.2c.92-.16.54-.11-1.13.15a5.74,5.74,0,0,0,1.31,0c-1.66-.27-2-.3-1.1-.11s.56.11-1-.48c1.36.77-1.48-1.55-.5-.47a5.26,5.26,0,0,1-1.45-2.56c.23.86.21.56,0-.92.5-.2-.72,3.07.12,1.46.49-.93.53-2.19,1.61-2.8a3,3,0,0,1,1.53-.26c1,.19,1.23.2.6,0s-.44-.11.67.29c1,.86,1.14,1,.45.32.78,1.1.93,1.24.43.42.46,1.18.59,1.44.39.79a5.45,5.45,0,0,1-.2-.89c.17,1.37.23,1.53.18.5s0-.87-.12.36a3.63,3.63,0,0,1-1.53,2,3.5,3.5,0,0,1-2.27,1.51c.94-.23.7-.23-.73,0a14.62,14.62,0,0,0,2.43-.08c4.7,0,9.22-4.13,9-9a9.17,9.17,0,0,0-9-9Z" class="cls-2"></path><path d="M372.48,742.64c-4.32-4.45-10.65-4.27-15.89-1.72a15.51,15.51,0,0,0-8.41,10.71c-1.42,6,.6,12,6.15,15a18.55,18.55,0,0,0,14.23,1.22c10.21-3.37,15.47-14.8,9-24.09-3.41-4.91-9-7.76-15-6-5.36,1.56-10.3,5.79-10.09,11.83a9.19,9.19,0,0,0,6.6,8.67,11.49,11.49,0,0,0,3.68.43c4.67-.42,9.23-3.85,9-9-.21-4.52-4-9.45-9-9l1.11.22,6.61,8.68c-.08-2.41-1.45,6.76-3.72,5.71-.05,0,2.47-.06.48-.21a26.47,26.47,0,0,1-4.33-1c-.52-.74-.61-.84-.27-.29s.28.43-.12-.47c.19,1.89.11-1.38.11-1.49l.42-1c-.44.69-.46.74-.07.16s.37-.55-.21.05l.71-.6c-2.21.68,1.9-.26-.39.2-1.72.35,1.16.08.05,0s1.81.57.14.07a8.64,8.64,0,0,1-1-.27c-.64-.19-.47-.12.51.22l2.89,4.86c-.21,1.06-.2,1.06.05,0-1.2,1.19,1-.43-.43.59-.41.3-2.16,1.5-.8.87,1.74-.81-1.67.07.28-.15a5.69,5.69,0,0,1-5-1.56,9,9,0,0,0,12.72-12.72Z" class="cls-2"></path></g><g id="图层_10"><circle r="42" cy="612" cx="700.12" class="cls-7"></circle><circle r="42" cy="759" cx="759.12" class="cls-7"></circle><circle r="42" cy="907" cx="813.12" class="cls-7"></circle><rect transform="translate(-107.3 245.79) rotate(-14.22)" ry="40" rx="40" height="80" width="300" y="513" x="781.62" class="cls-8"></rect><path d="M1039.08,728.75l-150.26,39a40.11,40.11,0,0,1-48.6-28.94h0a40.11,40.11,0,0,1,28.95-48.6l150.25-39a40.11,40.11,0,0,1,48.6,28.94h0A40.11,40.11,0,0,1,1039.08,728.75Z" class="cls-8"></path><rect transform="translate(-176.48 281.11) rotate(-14.22)" ry="40" rx="40" height="80" width="300" y="808" x="888.62" class="cls-8"></rect></g><path d="M445,507.18l18.35-4.6L513,490.13l73.71-18.49,89.49-22.46,98.49-24.71,99-24.83,92.72-23.27,78-19.57,56.38-14.15c8.86-2.22,17.84-4.18,26.63-6.68.39-.11.78-.19,1.17-.29,11.23-2.82,6.47-20.18-4.78-17.36l-18.35,4.6-49.6,12.45-73.7,18.49-89.49,22.46L794.09,401l-99,24.83-92.73,23.27-78,19.57L468,482.85c-8.86,2.22-17.84,4.18-26.63,6.68-.39.11-.78.19-1.17.29C429,492.64,433.76,510,445,507.18Z" class="cls-8"></path><path d="M430.71,324.31l17.93-4.11L497.74,309,570,292.4l88.66-20.3L755.34,250l98-22.45,91-20.84L1021.61,189l55.29-12.66c8.73-2,17.6-3.7,26.26-6,.38-.11.77-.18,1.15-.27,11.29-2.58,6.51-19.94-4.78-17.36l-17.93,4.11L1032.5,168,960.21,184.6l-88.66,20.3L774.91,227l-98,22.45-91,20.84L508.63,288l-55.29,12.66c-8.73,2-17.6,3.7-26.26,6-.38.11-.77.18-1.15.27-11.29,2.58-6.51,19.94,4.78,17.36Z" class="cls-8"></path><path d="M380.58,343.86c12.52-12.12,29.68-19.75,46.81-17.44,18.34,2.47,32.6,15.29,41.09,31.16C477.26,374,481,393.2,481,411.7s-3.56,37.62-13.44,53.5C459,479,445.09,487.86,430,492a51.72,51.72,0,0,1-19.47,1.78c-.57,0-1.15-.11-1.71-.18,2,.25-.8-.15-1-.19-1.66-.33-3.3-.68-4.92-1.13-1.34-.37-2.67-.8-4-1.27-.78-.28-1.56-.58-2.33-.9,1.69.72-.76-.38-.88-.44a72.39,72.39,0,0,1-7.92-4.58,41.76,41.76,0,0,1-6.71-5.5,65,65,0,0,1-11.84-14.5c-7.44-11.83-11.67-23.65-14.24-37.94a106.86,106.86,0,0,1,1.86-45.65c4.13-14.93,11.5-27.38,23.73-37.62,3.73-3.12,3.22-9.5,0-12.72-3.69-3.7-9-3.13-12.73,0-25.78,21.57-35.27,57.28-31.77,89.79,3.37,31.32,17.49,64.56,45.42,81.49,30.49,18.47,73.14,8.05,95.14-19.12,27.51-34,28.19-86.52,11.74-125.5-8.89-21.06-24.54-39-46.64-46.41-20.09-6.77-42.74-2.73-60.28,8.78a93.12,93.12,0,0,0-13.61,11c-8.33,8.07,4.41,20.79,12.73,12.72Z" class="cls-8"></path><path d="M1101.62,170.5a41.59,41.59,0,0,1,8.48,1.49c1.44.39,2.87.82,4.27,1.32a22,22,0,0,1,4.37,1.82,61.85,61.85,0,0,1,7.59,4.43,25.25,25.25,0,0,1,2.77,2q2.24,1.83,4.31,3.83c9,8.7,15.95,20.49,20.1,31.94a107.93,107.93,0,0,1,6.84,40.54c-.21,12.35-2.75,25.46-8.23,35.82a45.2,45.2,0,0,1-11.8,15c-.41.36-.84.7-1.26,1,1.42-1.13-1.22.85-1.49,1q-2.07,1.38-4.27,2.57c-.74.39-1.49.76-2.25,1.13-2.46,1.19,1.59-.56-1,.44a54.44,54.44,0,0,1-5.84,1.89c-11.17,3-6.43,20.38,4.78,17.36,31.76-8.57,46.86-39.48,49.07-70.17,2.26-31.28-7.64-65.7-29.42-88.77a72.19,72.19,0,0,0-47-22.74c-4.85-.39-9,4.42-9,9,0,5.2,4.14,8.61,9,9Z" class="cls-8"></path><path d="M1282,1017.18c26.07-6.73,31.64-39.38,33.52-62,3.45-41.49-2.91-84.05-9.89-124.84-9.42-55.07-22.71-109.47-37.72-163.26q-24.47-87.72-55.52-173.44c-18.91-52.27-39.49-104-63.16-154.35q-3.85-8.21-7.85-16.34c-5.09-10.4-20.62-1.29-15.54,9.08,23.19,47.33,43.14,96.2,61.54,145.57q31,83.31,55.91,168.77c15.67,53.81,29.65,108.2,40.32,163.24,8.28,42.73,15.23,84.61,14.69,128.45a233.12,233.12,0,0,1-1.41,23.47c-.1.88-.39,2.9-.09.8-.12.83-.24,1.67-.37,2.49-.28,1.8-.59,3.59-1,5.37-.6,3-1.32,6-2.2,9-.4,1.32-.82,2.64-1.29,3.94-.22.62-.47,1.24-.7,1.86-.9,2.5.56-1-.2.52a67.71,67.71,0,0,1-3.51,6.49c-.3.46-.65.91-.94,1.38-1.13,1.79,1.1-1.18.17-.2s-1.53,1.79-2.38,2.62-3.52,2.66-.76.82c-.88.58-1.71,1.2-2.62,1.72-1.23.7-3.42,1.28-.83.53-1,.29-2,.7-3,1-11.21,2.9-6.46,20.26,4.78,17.36Z" class="cls-8"></path><path d="M414.85,507c16.3,31.84,31.66,64.17,46.71,96.61,25.34,54.65,48.93,108.72,71,164.05,24.44,61.15,47.07,123.21,64.86,186.65,8,28.4,14.95,57.13,19.87,86.23q.76,4.51,1.45,9c.24,1.62.48,3.23.71,4.85.12.8.23,1.6.34,2.41.2,1.46-.1-.87.21,1.58.78,6.17,1.47,12.36,2,18.56a292.18,292.18,0,0,1,1,34.76c-.18,5.11-.54,10.22-1.11,15.31-.08.69-.64,4.72-.22,1.84-.17,1.18-.34,2.37-.53,3.54q-.57,3.45-1.3,6.85a111.16,111.16,0,0,1-3.68,13.16c-.34,1-.7,2-1.08,2.93-.26.66-1.48,3.42-.26.69-.88,2-1.78,3.93-2.8,5.84-.91,1.7-1.88,3.36-2.93,5-.47.73-1,1.45-1.46,2.16-.22.31-.46.62-.68,1-1.34,2,1-1.14,0,0a75.37,75.37,0,0,1-8,8.17c-.28.25-.59.47-.88.72-.89.75,1.94-1.37.55-.44-.76.51-1.48,1.08-2.24,1.58a51.75,51.75,0,0,1-5.19,3c-.83.43-1.7.81-2.54,1.23-2,1,1.83-.59-.93.38-1.86.65-3.7,1.3-5.6,1.83s-4,1-6,1.35c-.72.13-4.39.61-1.28.24-1.09.13-2.18.25-3.27.35-4.84.44-9,3.83-9,9,0,4.53,4.13,9.44,9,9,17.88-1.61,35.08-8.36,46.94-22.3,12.08-14.19,18-32.28,20.54-50.49,3.33-23.41,2.3-47.12-.48-70.53-3.38-28.58-9.14-56.81-16.12-84.71-16.09-64.29-38.11-127.08-62-188.83-22.89-59.12-47.86-117.44-74.19-175.11-16.89-37-34.27-73.78-52.6-110.08q-1.63-3.26-3.3-6.49c-5.28-10.32-20.82-1.22-15.54,9.08Z" class="cls-8"></path><path d="M1280.94,1005.89a9,9,0,0,1,2.15-8.35c-.81.84,1.1-1.56,1.45-1.08a11,11,0,0,1-1,.61c-.51.21-1,.5-1.5.74-2.38,1.19,1.07-.37-.1.06-4.16,1.54-8.29,3.11-12.49,4.53-14.09,4.77-28.35,9.07-42.6,13.34-40.28,12.06-80.75,23.45-121.25,34.74q-54.45,15.18-109,30c-44.64,12.11-89.23,24.37-133.68,37.17-78.11,22.48-156.42,45-236.53,59.24q-15,2.69-30.15,5c-4.81.73-7.47,6.79-6.29,11.07,1.42,5.15,6.25,7,11.07,6.29,82.45-12.46,163-34.48,243-57.41q75.38-21.6,151-42.25,53.52-14.48,106.93-29.34c41.53-11.55,83-23.21,124.35-35.5,15.09-4.49,30.18-9,45.12-14,4.62-1.54,9.25-3.1,13.78-4.87,3.47-1.36,7.54-2.66,10.32-5.3a9.8,9.8,0,0,0,2.76-9.42c-.92-4.78-6.65-7.5-11.07-6.29-5,1.38-7.21,6.28-6.29,11.07Z" class="cls-8"></path><path d="M490.62,1031.5c44.42,2.94,93-5.15,130.54-30.23,9.59-6.4.59-22-9.08-15.54-35.15,23.47-79.92,30.52-121.46,27.77-11.56-.77-11.52,17.24,0,18Z" class="cls-8"></path><path d="M483.26,1020.14c-34.68,36.6-55.93,93.23-28.18,140,21,35.4,64.33,49.4,103.65,47.38,19-1,39.62-5.12,55.43-16.29,4-2.8,5.84-7.86,3.23-12.31-2.29-3.92-8.32-6-12.31-3.23-11.15,7.87-24.82,11.69-38.38,13.19a126.82,126.82,0,0,1-50.24-4.17c-15.87-4.74-31-13.42-41.24-26.72-13-16.87-17.56-39-13.89-59.85,4.36-24.73,17.53-47.24,34.65-65.32,8-8.4-4.74-21.15-12.72-12.72Z" class="cls-8"></path><rect transform="translate(1447.08 -701.69) rotate(53.29)" ry="47.94" rx="47.94" height="95.89" width="300" y="1043.19" x="1272.75" class="cls-8"></rect><ellipse transform="matrix(0.87, -0.5, 0.5, 0.87, -311.23, 797.46)" ry="61.14" rx="77.24" cy="979.49" cx="1332.46" class="cls-7"></ellipse><path d="M1176.62,564c-125.64,0-227.5,101.86-227.5,227.5S1051,1019,1176.62,1019s227.5-101.86,227.5-227.5S1302.27,564,1176.62,564Zm0,394.6a167.1,167.1,0,1,1,167.1-167.1A167.1,167.1,0,0,1,1176.62,958.6Z" class="cls-8"></path><path d="M1169.12,563c-124.82,0-226,101.18-226,226s101.18,226,226,226,226-101.18,226-226S1293.94,563,1169.12,563Zm0,392a166,166,0,1,1,166-166A166,166,0,0,1,1169.12,955Z" class="cls-9"></path><circle r="180" cy="789" cx="1169.12" class="cls-10"></circle><g id="图层_29"><g id="建筑"><path d="M762.06,1270.41l-68-39.18c-5.14-2.94-4.5-8.1,1.43-11.52l64.59-37.21c5.92-3.41,14.87-3.77,20-.83l68,39.18c5.12,3,4.48,8.11-1.44,11.53l-64.6,37.2C776.15,1273,767.19,1273.36,762.06,1270.41Z" class="cls-11" id="路径-4"></path><path d="M851.54,1199.78c0-.2,0-.41,0-.62V1051.69H690.61V1199.9c0,1.87,1.13,3.61,3.46,5l68,39.16c5.12,3,14.08,2.59,20-.82L846.67,1206c3-1.72,4.62-3.9,4.82-6h0Z" class="cls-12" id="路径-5"></path><path d="M762.06,1096.3l-68-39.22c-5.14-3-4.5-8.12,1.43-11.52l64.59-37.28c5.92-3.4,14.88-3.78,20-.82l68,39.17c5.12,3,4.48,8.12-1.43,11.52l-64.61,37.28C776.15,1098.88,767.19,1099.26,762.06,1096.3Z" class="cls-13" id="路径-6"></path></g></g></g></svg>